<?xml version="1.0" encoding="UTF-8"?>
<svg id="Layer_1" xmlns="http://www.w3.org/2000/svg" version="1.1" viewBox="0 0 1254 1254">
  <!-- Generator: Adobe Illustrator 30.5.1, SVG Export Plug-In . SVG Version: 2.1.4 Build 3)  -->
  <path d="M1185.57,149.23c0-43.84-27.55-82.6-66.19-100.7-40.83-19.13-87.98-16.85-126.82,6.19-33.3,19.76-56.22,55.99-56.25,95.68l-.38,653.25.09,39.98c.03,13.51-.33,26.37-3.82,39.13-8.12,29.65-30.52,53.04-56.69,62.39-32.53,11.62-65.87,5.5-91.07-15.75-20.65-17.42-33.28-42.64-33.32-70.11l-.35-245.85.07-231.05c.04-148.83-97.26-281.46-240.38-321.81-67.49-19.02-138.62-19.66-204.99,2.42l-13.66,4.55C159.84,114.72,68.42,239.99,68.41,381.43l-.06,712.76c0,68.93,56.48,123.39,124.03,124.15,65.31.73,125.56-52.18,125.64-120.57l.88-712.63c.07-54.62,49.94-96.23,103.56-88.53,43.56,6.25,78.96,43.23,79.08,88.34l1.24,493.92c.16,62.52,24.72,123.29,59.49,174.21,43.7,63.99,108.48,111.28,182.25,133.98,91.72,28.23,190.9,16.68,273.4-31.79,36.89-21.68,68.83-50.13,94.95-83.49l16.54-23.16c31.76-44.47,56.26-119.27,56.25-174.93l-.09-724.43Z"/>
</svg>